HIERARCHY
ROOT Hips
{
	OFFSET 0.00000 0.00000 0.00000
	CHANNELS 6 Xposition Yposition Zposition Zrotation Yrotation Xrotation 
	JOINT RightUpLegDummy
	{
		OFFSET 0 0 0
		CHANNELS 3 Zrotation Yrotation Xrotation
		JOINT RightUpLeg
		{
			OFFSET -3.52197 -3.41223 0.04002
			CHANNELS 3 Zrotation Yrotation Xrotation
			JOINT RightLeg
			{
				OFFSET -1.06336 -17.58347 1.60435
				CHANNELS 3 Zrotation Yrotation Xrotation
				JOINT RightFoot
				{
					OFFSET -0.27018 -17.05419 -1.63900
					CHANNELS 3 Zrotation Yrotation Xrotation
					JOINT RightToes
					{
						OFFSET 0.00298 -1.73825 3.34613
						CHANNELS 3 Zrotation Yrotation Xrotation
						End Site
						{
							OFFSET 0.00480 -0.05416 3.85043
						}
					}
				}
			}
		}
	}
	JOINT SpineDummy
	{
		OFFSET 0 0 0
		CHANNELS 3 Zrotation Yrotation Xrotation
		JOINT Spine
		{
			OFFSET 0.00000 4.14613 0.00000
			CHANNELS 3 Zrotation Yrotation Xrotation
			JOINT Spine1
			{
				OFFSET 0.00000 10.93369 0.05002
				CHANNELS 3 Zrotation Yrotation Xrotation
				JOINT HEadDummy
				{
					OFFSET 0 0 0
					CHANNELS 3 Zrotation Yrotation Xrotation
					JOINT Head
					{
						OFFSET 0.00000 5.52901 0.00438
						CHANNELS 3 Zrotation Yrotation Xrotation
						End Site
						{
							OFFSET -0.11417 7.29012 0.98962
						}
					}
				}
				JOINT LeftShoulder1Dummy
				{
					OFFSET 0 0 0
					CHANNELS 3 Zrotation Yrotation Xrotation
					JOINT LeftShoulder1
					{
						OFFSET 3.53937 -0.14262 -0.08662
						CHANNELS 3 Zrotation Yrotation Xrotation
						JOINT LeftArm
						{
							OFFSET 4.04833 -0.00133 0.12681
							CHANNELS 3 Zrotation Yrotation Xrotation
							JOINT LeftForeArm
							{
								OFFSET 9.67557 0.03289 -0.56117
								CHANNELS 3 Zrotation Yrotation Xrotation
								JOINT LeftHand
								{
									OFFSET 10.17679 0.06873 0.40307
									CHANNELS 3 Zrotation Yrotation Xrotation
									End Site
									{
										OFFSET 6.59293 -0.21483 0.59213
									}
								}
							}
						}
					}
				}
				JOINT RightShoulderDummy
				{
					OFFSET 0 0 0
					CHANNELS 3 Zrotation Yrotation Xrotation
					JOINT RightShoulder
					{
						OFFSET -3.53937 -0.14262 -0.08660
						CHANNELS 3 Zrotation Yrotation Xrotation
						JOINT RightArm
						{
							OFFSET -4.04833 -0.00132 0.12683
							CHANNELS 3 Zrotation Yrotation Xrotation
							JOINT RightForeArm
							{
								OFFSET -9.67570 0.03289 -0.56114
								CHANNELS 3 Zrotation Yrotation Xrotation
								JOINT RightHand
								{
									OFFSET -10.17679 0.06867 0.40304
									CHANNELS 3 Zrotation Yrotation Xrotation
									End Site
									{
										OFFSET -6.54841 -0.21495 0.59212
									}
								}
							}
						}
					}
				}
			}
		}
	}
	JOINT LeftUpLegDummy
	{
		OFFSET 0 0 0
		CHANNELS 3 Zrotation Yrotation Xrotation
		JOINT LeftUpLeg
		{
			OFFSET 3.52197 -3.41223 0.04002
			CHANNELS 3 Zrotation Yrotation Xrotation
			JOINT LeftLeg
			{
				OFFSET 1.08359 -17.35354 1.60336
				CHANNELS 3 Zrotation Yrotation Xrotation
				JOINT LeftFoot
				{
					OFFSET 0.24986 -17.28405 -1.63802
					CHANNELS 3 Zrotation Yrotation Xrotation
					JOINT LeftToes
					{
						OFFSET -0.01575 -1.73822 3.34610
						CHANNELS 3 Zrotation Yrotation Xrotation
						End Site
						{
							OFFSET 0.03150 -0.01868 3.85031
						}
					}
				}
			}
		}
	}
}
MOTION
Frames: 15
Frame Time: 0.033333
-33.9809 40.2134 4.8972 -172.7680 -22.3463 179.7030 0.0000 0.0000 0.0000 11.0138 -2.8435 -22.8000 8.9180 20.0057 25.1581 12.4652 0.0119 -9.8521 0.0000 0.0000 -0.0000 0.0000 0.0000 0.0000 4.2217 6.7482 2.7854 -9.8216 10.6218 16.8197 0.0000 0.0000 0.0000 -3.7212 21.2797 -18.7232 0.0000 0.0000 0.0000 -14.8407 -3.7114 1.8689 15.4203 -29.8304 -64.9223 179.5323 -76.0286 -166.2531 5.0077 1.0118 -0.1609 0.0000 0.0000 0.0000 4.0643 3.1909 0.9281 19.9998 87.0514 -21.8486 -6.6112 87.7782 8.7857 -18.0428 8.9605 -2.0767 0.0000 0.0000 0.0000 2.7727 26.4978 -15.5213 -5.3050 -11.9443 28.0760 10.5575 0.2016 -15.4130 -0.0000 -0.0000 0.0000
-33.3062 40.4598 4.9142 -173.0070 -20.1763 179.7130 0.0000 0.0000 0.0000 7.4302 -1.8976 -23.1413 4.2038 9.4697 29.2217 5.0354 0.1782 -10.6343 0.0000 0.0000 -0.0000 0.0000 0.0000 0.0000 5.5865 7.5565 3.0561 -11.6304 11.9740 16.4576 0.0000 0.0000 0.0000 -3.1247 21.4186 -17.0322 0.0000 0.0000 0.0000 -13.8604 -3.6213 1.7757 18.0018 -29.8302 -66.2463 179.2083 -78.5589 -165.1065 4.9621 0.5082 -0.1784 0.0000 0.0000 0.0000 3.8566 3.0874 0.9007 0.7992 88.5325 -41.9859 -4.9160 86.8434 10.7792 -18.6351 8.9956 -2.1534 0.0000 0.0000 0.0000 3.4898 27.1961 -14.1177 -3.6684 -10.7052 24.9042 9.7139 0.0423 -13.6232 -0.0000 -0.0000 0.0000
-32.6929 40.6309 4.8682 -172.9650 -19.5305 179.8090 0.0000 0.0000 0.0000 3.5665 -2.1924 -22.9902 -0.4392 2.1598 32.8070 -1.0845 0.1512 -6.7281 0.0000 0.0000 -0.0000 0.0000 0.0000 0.0000 6.7162 7.7908 2.6014 -12.1854 12.2213 15.9451 0.0000 0.0000 0.0000 -2.5039 21.9245 -14.7524 0.0000 0.0000 0.0000 -13.2441 -3.4627 1.6964 19.1496 -29.7901 -66.1661 179.1216 -80.6630 -165.6292 5.4987 0.5596 -0.1941 0.0000 0.0000 0.0000 3.7897 3.0575 0.8924 -24.0201 89.6087 -67.3463 -3.8394 86.0779 11.5659 -19.0198 9.0643 -2.2108 0.0000 0.0000 0.0000 4.3537 26.3435 -13.4180 -2.5283 -9.5536 22.7894 8.5659 -0.0723 -12.2044 -0.0000 -0.0000 0.0000
-32.0924 40.6722 4.7511 -172.9360 -19.9227 -179.7120 0.0000 0.0000 0.0000 -0.5559 -2.9015 -22.1833 -3.0142 -1.0449 34.6828 -5.7034 0.4673 -2.2052 0.0000 0.0000 -0.0000 0.0000 0.0000 0.0000 7.3658 7.6882 1.3313 -11.8336 11.7811 15.4466 0.0000 0.0000 0.0000 -1.8665 22.5446 -12.5793 0.0000 0.0000 0.0000 -12.9567 -3.3384 1.6494 19.5602 -29.7876 -65.0191 179.5417 -82.0460 -168.1229 6.2862 1.3777 -0.1831 0.0000 0.0000 0.0000 3.8206 3.1057 0.9007 150.3376 89.7146 106.7872 -3.2871 85.8890 11.4393 -19.1293 8.9617 -2.2076 0.0000 0.0000 0.0000 5.0782 25.4596 -13.9164 -2.4290 -9.5869 22.2451 7.6942 -0.1361 -11.2035 -0.0000 -0.0000 0.0000
-31.4752 40.6013 4.6093 -173.2640 -20.1251 -179.0540 0.0000 0.0000 0.0000 -4.9319 -2.4923 -20.4955 -5.3376 -3.9121 33.8613 -9.2794 0.9763 1.2645 0.0000 0.0000 -0.0000 0.0000 0.0000 0.0000 7.7453 7.6999 -0.1229 -11.5930 11.5469 15.1230 0.0000 0.0000 0.0000 -1.2724 22.8841 -10.9819 0.0000 0.0000 0.0000 -13.0774 -3.2848 1.6466 19.7971 -30.0380 -63.7241 179.8521 -82.7656 -169.5684 6.3610 1.6673 -0.1706 0.0000 0.0000 0.0000 4.0578 3.0871 0.9141 134.4903 89.0146 90.9793 -3.6977 86.5685 10.7863 -19.1842 8.5702 -2.1509 0.0000 0.0000 0.0000 5.4502 25.6806 -14.9489 -2.8090 -10.1709 22.6038 7.3151 -0.1653 -10.6308 -0.0000 -0.0000 0.0000
-30.8280 40.4690 4.4815 -173.6480 -19.6445 -178.5800 0.0000 0.0000 0.0000 -9.1224 0.1840 -18.0038 -6.7808 -6.3510 30.0820 -10.5766 1.4613 5.8064 0.0000 0.0000 -0.0000 0.0000 0.0000 0.0000 8.2873 7.9957 -1.3376 -11.6055 11.7877 15.2270 0.0000 0.0000 0.0000 -0.9762 22.8997 -10.1725 0.0000 0.0000 0.0000 -13.6838 -3.2760 1.6876 19.3574 -30.5354 -62.7510 179.5842 -83.0449 -168.5286 5.5041 0.8895 -0.1808 0.0000 0.0000 0.0000 4.5433 2.9938 0.9340 94.7623 88.1493 51.6262 -5.9579 87.7812 8.8218 -19.2434 8.2663 -2.1086 0.0000 0.0000 0.0000 5.9358 26.5339 -15.9382 -3.1840 -10.4681 23.5183 6.8494 -0.1695 -10.5204 -0.0000 -0.0000 0.0000
-30.1144 40.2668 4.3455 -173.7010 -18.8739 -178.4090 0.0000 0.0000 0.0000 -12.4451 6.0595 -15.1624 -5.7320 -5.8005 24.8024 -8.6843 1.4808 10.7109 0.0000 0.0000 -0.0000 0.0000 0.0000 0.0000 9.0568 8.3604 -2.2255 -11.5088 12.1359 15.6895 0.0000 0.0000 0.0000 -1.1489 22.9434 -10.1239 0.0000 0.0000 0.0000 -14.6817 -3.3329 1.7712 17.5428 -30.9480 -61.8582 179.3027 -82.8315 -167.2953 4.5897 0.4090 -0.1689 0.0000 0.0000 0.0000 5.0983 3.0564 0.9796 88.2098 86.6460 45.7118 -12.4066 88.9221 2.4698 -19.3148 8.3735 -2.1343 0.0000 0.0000 0.0000 7.1128 26.8589 -16.8913 -3.4842 -10.2659 25.1820 5.9595 -0.1582 -10.7607 -0.0000 -0.0000 0.0000
-29.2575 39.9092 4.1667 -173.6110 -18.3356 -178.3880 0.0000 0.0000 0.0000 -14.4909 13.9143 -12.8533 -3.9952 -3.2938 20.9926 -3.7685 0.5800 10.9303 0.0000 0.0000 -0.0000 0.0000 0.0000 0.0000 9.5190 8.4767 -2.6623 -11.3655 12.2258 16.1162 0.0000 0.0000 0.0000 -1.6130 23.2682 -10.5761 0.0000 0.0000 0.0000 -15.9503 -3.4791 1.8970 14.5966 -31.0656 -60.8701 179.3705 -82.0249 -167.2661 4.1970 1.2153 -0.1296 0.0000 0.0000 0.0000 5.5174 3.3154 1.0449 81.0061 85.0919 39.2618 -52.1556 89.7238 -37.5319 -19.5207 8.6013 -2.1955 0.0000 0.0000 0.0000 8.8655 26.0693 -18.1903 -3.6148 -9.3861 27.8636 4.8732 -0.1424 -11.3005 -0.0000 -0.0000 0.0000
-28.2502 39.4290 3.9646 -173.6700 -18.4063 -178.4160 0.0000 0.0000 0.0000 -14.9351 18.1811 -11.3838 -3.2825 -1.9306 19.6496 2.6580 -0.4390 5.1865 0.0000 0.0000 -0.0000 0.0000 0.0000 0.0000 9.2538 8.2043 -2.7065 -11.1225 11.9003 16.5055 0.0000 0.0000 0.0000 -2.1587 23.7061 -11.3084 0.0000 0.0000 0.0000 -17.4899 -3.7117 2.0690 11.2466 -31.0628 -59.9826 179.3974 -80.9527 -167.0493 4.2157 2.0134 -0.1066 0.0000 0.0000 0.0000 5.8675 3.5109 1.0979 76.4463 83.5268 35.6292 -156.1494 89.4635 -141.5030 -19.8534 8.6050 -2.2353 0.0000 0.0000 0.0000 10.6836 24.6273 -19.8073 -3.4970 -8.1456 30.8480 3.9036 -0.1337 -11.9322 -0.0000 -0.0000 0.0000
-27.1788 38.9945 3.7778 -173.8260 -19.3091 -178.5640 0.0000 0.0000 0.0000 -13.8000 15.4264 -10.2086 -3.2924 -1.9546 19.4451 8.4895 -0.6808 -1.6467 0.0000 0.0000 -0.0000 0.0000 0.0000 0.0000 8.5931 7.6031 -2.6412 -10.3052 11.1251 17.2184 0.0000 0.0000 0.0000 -2.8311 24.0254 -12.4157 0.0000 0.0000 0.0000 -19.0519 -4.0196 2.2698 7.6930 -31.1314 -59.1444 179.3359 -80.0427 -166.4220 4.5765 1.4890 -0.1324 0.0000 0.0000 0.0000 6.2692 3.5514 1.1326 73.5384 82.2725 33.7368 -163.9667 89.1879 -149.1089 -20.0582 8.6414 -2.2656 0.0000 0.0000 0.0000 12.3427 23.2070 -21.2306 -3.5004 -7.4984 32.9306 3.1596 -0.1379 -12.1369 -0.0000 -0.0000 0.0000
-26.1460 38.7104 3.6214 -173.9690 -20.8142 -179.0030 0.0000 0.0000 0.0000 -11.9694 9.5063 -9.0342 -3.5482 -2.5026 19.4633 10.9225 -0.3698 -6.2296 0.0000 0.0000 -0.0000 0.0000 0.0000 0.0000 8.3211 6.7961 -2.2796 -9.2308 10.1308 17.9685 0.0000 0.0000 0.0000 -3.4990 24.2954 -13.8671 0.0000 0.0000 0.0000 -19.9309 -4.2977 2.4158 4.1855 -31.2007 -58.0253 179.3768 -79.5102 -166.4703 5.2526 0.3349 -0.1951 0.0000 0.0000 0.0000 6.4537 3.5949 1.1523 70.5634 81.7597 31.4113 -160.7942 89.3729 -146.3877 -19.9634 8.9917 -2.3133 0.0000 0.0000 0.0000 13.8420 22.1351 -21.9375 -4.0499 -8.0046 33.6124 2.5863 -0.1502 -11.4390 -0.0000 -0.0000 0.0000
-25.2372 38.5506 3.5009 -174.1270 -22.2263 -179.8040 0.0000 0.0000 0.0000 -10.3886 5.8538 -7.8367 -4.0051 -3.4639 19.6075 9.7738 -0.0319 -8.9857 0.0000 0.0000 -0.0000 0.0000 0.0000 0.0000 9.1760 5.9930 -1.1886 -8.9488 9.4250 17.9975 0.0000 0.0000 0.0000 -3.6437 24.5538 -14.8178 0.0000 0.0000 0.0000 -19.8282 -4.4091 2.4382 2.0359 -31.2736 -56.7578 179.3510 -79.7017 -166.3519 5.6312 -0.3174 -0.2364 0.0000 0.0000 0.0000 6.1313 3.5975 1.1297 66.4629 81.9792 27.4854 -138.7210 89.7428 -125.2715 -19.6764 9.2601 -2.3234 0.0000 0.0000 0.0000 15.0679 21.7857 -21.8177 -4.8847 -9.1779 33.3104 2.1287 -0.1595 -9.9584 -0.0000 -0.0000 0.0000
-24.4639 38.4687 3.4047 -174.5710 -23.0591 179.4410 0.0000 0.0000 0.0000 -9.5971 5.8094 -6.7607 -4.5791 -4.6543 19.8125 8.2699 0.2076 -11.3466 0.0000 0.0000 -0.0000 0.0000 0.0000 0.0000 10.5794 5.4756 0.1336 -9.6979 9.2801 17.4383 0.0000 0.0000 0.0000 -3.2678 24.5018 -14.2485 0.0000 0.0000 0.0000 -19.4228 -4.4037 2.4031 2.3808 -31.5829 -55.9402 178.8297 -80.8573 -164.1135 5.1050 -0.6257 -0.2256 0.0000 0.0000 0.0000 5.6570 3.4025 1.0672 61.5161 82.6197 22.7295 -39.9536 89.7527 -26.8039 -19.4409 9.0418 -2.2584 0.0000 0.0000 0.0000 15.6476 22.8418 -21.3966 -5.7152 -10.5188 32.6660 1.6937 -0.1580 -8.1158 -0.0000 -0.0000 0.0000
-23.8211 38.4969 3.3193 -175.2510 -23.5090 179.2740 0.0000 0.0000 0.0000 -9.4793 6.8333 -6.2121 -4.8340 -5.1892 19.8324 8.0086 0.3490 -13.0229 0.0000 0.0000 -0.0000 0.0000 0.0000 0.0000 11.6468 5.3644 0.6246 -10.2902 9.3796 17.0757 0.0000 0.0000 0.0000 -3.2842 24.0634 -12.4599 0.0000 0.0000 0.0000 -19.1730 -4.4146 2.3852 4.2355 -31.9818 -55.8308 177.8294 -82.3604 -160.7978 4.0543 -1.1757 -0.1941 0.0000 0.0000 0.0000 5.4901 3.1951 1.0257 56.1902 83.6819 17.7047 -14.0594 89.2724 -0.4924 -19.4200 8.6986 -2.1996 0.0000 0.0000 0.0000 15.5472 25.6974 -21.4600 -7.2537 -12.9112 32.0472 0.6318 -0.1077 -5.6312 -0.0000 -0.0000 0.0000
-23.2957 38.6214 3.2461 -176.0630 -24.0453 179.8060 0.0000 0.0000 0.0000 -9.7521 6.9366 -6.5574 -4.6974 -4.8533 20.0837 7.8656 0.3784 -13.4049 0.0000 0.0000 -0.0000 0.0000 0.0000 0.0000 11.8479 5.3369 0.2716 -10.0748 9.1963 16.8862 0.0000 0.0000 0.0000 -4.0054 23.8155 -10.7643 0.0000 0.0000 0.0000 -18.4787 -4.3767 2.3180 5.6770 -31.8805 -56.0944 177.4282 -83.3109 -160.2230 3.4377 -1.5454 -0.1722 0.0000 0.0000 0.0000 5.3078 3.2040 1.0145 50.6089 85.1063 11.9338 -7.8793 88.6933 5.6743 -19.5110 8.6621 -2.2044 0.0000 0.0000 0.0000 14.9573 29.4410 -22.3511 -10.2425 -17.2966 31.8588 -2.2195 0.1532 -1.9992 -0.0000 -0.0000 0.0000
